<svg width="128" height="128" viewBox="0 0 128 128" fill="none" xmlns="http://www.w3.org/2000/svg">
<g clip-path="url(#clip0_20_125)">
<rect width="128" height="128" rx="15" fill="#262324"/>
<path d="M33.2535 104L27 98.0635L36.3803 95.9683L30.4742 87.9365L40.2019 90.7302L36.0329 77.8095L46.8028 80.6032L38.8122 69.0794L52.0141 70.127L42.6338 60.3492L54.7934 66.6349M54.7934 66.6349L46.4554 54.7619L64.5211 59.3016M54.7934 66.6349L64.5211 59.3016M54.7934 66.6349L68.6901 65.9365L61.3944 75.0159L72.1643 74.6667L60.6995 83.3968L70.0798 86.8889L58.2676 92.127L67.3005 94.2222L56.5305 99.8095L70.0798 103.651M64.5211 59.3016L45.0657 47.0794L67.6479 51.9683L47.1502 41.1429L69.385 47.4286L51.6667 35.9048L71.1221 42.8889L55.4883 29.2698L79.1127 43.2381L60.6995 25.4286L80.8498 39.3968M80.8498 39.3968L63.1315 24.381M80.8498 39.3968L73.9014 24.6902M80.8498 39.3968L82.2394 26.127M80.8498 39.3968L81.892 41.8413L85.7136 35.2063L82.2394 26.127M63.1315 24.381L64.1737 16M63.1315 24.381L73.9014 24.6902M64.1737 16L75.9859 19.1429L75.2911 24.7302M64.1737 16L75.2911 24.7302M75.2911 24.7302L73.9014 24.6902M82.2394 26.127L86.7559 31.0159L92.3146 26.127L93.3568 31.0159L101 25.4286" stroke="#0BC2FE"/>
<path d="M27.4322 98.0898L25 104H33.6864L34.0339 99.1328L47.5847 81.4023L54.1864 66.1055H55.5763L62.178 76.5352L63.9153 77.9258L60.0932 84.8789L56.6186 100.176L55.9237 104H70.5169L70.8644 102.609L66 100.871L64.2627 98.4375L67.0424 95.6562L73.9915 78.6211V75.1445L69.1271 65.4102L64.9576 59.5V54.6328H66.6949L70.8644 45.9414L69.822 44.5508L71.5593 42.8125L76.0763 45.2461L79.2034 43.8555L81.2881 39.3359L81.983 41.7695L87.1949 40.7266L86.1525 35.1641L87.1949 30.9922H101.441V28.2109H107V26.8203H101.788V22.9961L100.051 24.7344L99.2298 26.125H75.3814V24.7344H77.1186L78.161 20.9102L77.1186 20.5625L75.3814 17.0859L71.2119 15H65.3051L61.8305 18.8242L62.5254 23.6914C62.8729 23.9232 63.6373 24.3867 63.9153 24.3867C64.1932 24.3867 63.5678 25.3138 63.2203 25.7773H59.7458L54.5339 30.9922L51.4068 38.6406H48.2797L44.8051 48.7227L47.2373 50.8086L46.1949 54.9805L44.4576 56.0234L42.0254 62.6289H39.9407L38.5508 75.8398L34.7288 79.3164L27.4322 95.6562V98.0898Z" stroke="#00FFFF" stroke-width="2"/>
</g>
<defs>
<clipPath id="clip0_20_125">
<rect width="128" height="128" fill="white"/>
</clipPath>
</defs>
</svg>
