<svg width="128" height="128" viewBox="0 0 128 128" fill="none" xmlns="http://www.w3.org/2000/svg">
<g clip-path="url(#clip0_20_114)">
<rect width="128" height="128" rx="15" fill="#262324"/>
<path d="M24 99.6119L51.3226 79.5522M51.3226 79.5522V52.597L63.121 62M51.3226 79.5522L37.6613 75.791M63.121 62L70.5726 40.6866L56.2903 43.194L62.5 20L43.25 31.9104M63.121 62L80.5081 65.1343L71.8145 82.6866L88.5806 87.0746L80.5081 104L101 83.9403L97.8952 98.9851" stroke="#0BC2FE"/>
<path d="M56.8015 43.5556L23 99.5926H38.0229L63.0611 61.1852L79.9618 104L105 96.4444L101.244 83.2222L89.3511 87L62.4351 19H39.9008V32.2222H53.0458L56.8015 43.5556Z" stroke="#00FFFF" stroke-width="2"/>
</g>
<defs>
<clipPath id="clip0_20_114">
<rect width="128" height="128" fill="white"/>
</clipPath>
</defs>
</svg>
