<svg width="128" height="128" viewBox="0 0 128 128" fill="none" xmlns="http://www.w3.org/2000/svg">
<g clip-path="url(#clip0_20_99)">
<rect width="128" height="128" rx="15" fill="#262324"/>
<path d="M26 53.1562L31.8198 75.1562L43.1171 70L37.6396 86.8438H52.018L42.4324 96.4688C47.3393 94.2917 57.0847 89.9375 56.8108 89.9375C56.5369 89.9375 53.5015 98.1458 52.018 102.5L67.7658 91.6562L66.5 102.5L76.3243 89.9375L74.6126 103L84.1982 84.4375L85.9099 103M85.9099 103L102 94.75L89.3333 75.8438M85.9099 103L89.3333 75.8438M89.3333 75.8438C89.6072 75.8438 97.8919 77.6771 102 78.5938L90.3604 67.25L102 59.3438L88.5 56.5L101.658 46.9688L80.4324 47.5L84.1982 38.375L69.5 44L70.8468 31.5L50.991 26M51.6757 78.5938L58.8649 74.2625M82.4865 60.0312L75.1261 64.4656M48.9369 65.875C49.2108 66.15 55.6697 71.5812 58.8649 74.2625M58.8649 74.2625C57.952 67.6854 56.0577 54.5312 55.7838 54.5312L67.7658 68.9M58.8649 74.2625L67.7658 68.9M58.8649 74.2625L62.5 85.5L67.7658 68.9M67.7658 68.9L68.7928 51.0938L75.1261 64.4656M67.7658 68.9L75.1261 64.4656M67.7658 68.9L80 79.5L75.1261 64.4656M67.7658 68.9L71.1892 86.1562M75.1261 64.4656L76.3243 54.1875M75.1261 64.4656L84.1982 71.7188" stroke="#0BC2FE"/>
<path d="M45.8346 103L15 41.8929L43.063 69.8571L44.1024 76.0714L47.9134 82.2857L54.4961 88.5L62.4646 91.6071L72.5118 91.2619L79.7874 88.1548L85.6772 82.9762L89.8346 75.381L90.874 66.4048L88.1024 56.7381L79.7874 47.4167L69.3937 44.3095L41.6772 16L103 46.7262V103H45.8346Z" stroke="#00FFFF" stroke-width="2"/>
<path d="M62.4646 86.0833L55.5354 82.2857L51.7244 78.1429L49.2992 72.619L48.9528 65.369L51.7244 58.4643L56.2283 53.631L61.0787 51.2143L69.3937 50.1786L75.6299 52.25L82.9055 59.5L85.3307 66.4048L84.6378 74.3452L80.8268 80.2143L77.0158 82.9762L71.4724 86.0833H62.4646Z" stroke="#00FFFF" stroke-width="2"/>
</g>
<defs>
<clipPath id="clip0_20_99">
<rect width="128" height="128" fill="white"/>
</clipPath>
</defs>
</svg>
