<svg width="128" height="128" viewBox="0 0 128 128" fill="none" xmlns="http://www.w3.org/2000/svg">
<g clip-path="url(#clip0_20_135)">
<rect width="128" height="128" rx="15" fill="#262324"/>
<path d="M80.1529 92.4636L90.8025 101.136L52.0764 118L80.1529 92.4636ZM80.1529 92.4636L48.2038 107.4L79.6688 87.6455L44.3312 95.8364L86.4459 76.5636L46.7516 81.3818M46.7516 81.3818L86.9299 66.4455L47.7197 64.5182M46.7516 81.3818L42.879 88.6091L40.9427 76.0818L32.2293 77.5273L33.1975 66.9273L24 68.8545L25.9363 57.2909M47.7197 64.5182L50.1401 50.0636L38.0382 45.7273L43.3631 34.1636L32.2293 25.4909M47.7197 64.5182L72.4076 60.0504M92.7389 18.7455L100 27.4182L87.8981 32.2364L96.1274 44.2818L79.6688 48.1364L90.3185 56.8091L72.4076 60.0504M72.4076 60.0504L60.7898 56.3273L72.8917 48.1364L62.7261 40.9091L73.3758 35.1273L63.6943 27.4182L73.3758 23.5636L64.6624 16.3364L73.8599 12" stroke="#0BC2FE"/>
<path d="M45.5783 102.64L52.8072 118H89.4337L91.3615 101.68L89.9157 96.4L88.9518 85.84L79.7952 93.04L80.2771 84.88L87.0241 79.12V65.2L98.5904 39.28L101 18.64H92.8072L86.0602 37.84L73.0482 57.52L74.494 11.44L70.1566 10L64.8554 12.4L61 58.48L54.7349 59.44L39.7952 24.4L32.5663 25.36L34.012 36.88L47.988 64.24L47.0241 81.52L34.9759 68.08L26.3012 56.56H21V60.88L23.8916 69.04L43.6506 88.72L45.5783 102.64Z" stroke="#00FFFF" stroke-width="2"/>
</g>
<defs>
<clipPath id="clip0_20_135">
<rect width="128" height="128" fill="white"/>
</clipPath>
</defs>
</svg>
