<svg width="128" height="128" viewBox="0 0 128 128" fill="none" xmlns="http://www.w3.org/2000/svg">
<g clip-path="url(#clip0_20_81)">
<rect width="128" height="128" rx="15" fill="#262324"/>
<path d="M46.6863 20.7654L41.2745 36.9136M41.2745 36.9136L46.6863 46.3333L35.5 48L43.0784 55.7531L32.2549 62L40.3725 69.6584L31.3529 75.5L39.0196 81.321L32.2549 89.3951L41.2745 93.8807L37 103L46.6863 105.992L47.5 116L57.9608 114.066L62.9216 119L67.4314 111.823L74.1961 113.169L75.0681 99.2909M41.2745 36.9136L50.2941 38.7078L48.0392 27.0453L56.1569 28.8395L57.0588 17.6255L64.2745 21.6626L68.5 10.5L72.3922 18.0741L82 12L79.1569 20.7654L91.3333 20.3169L85.4706 30.6337M85.4706 30.6337L89.0784 42.2963M85.4706 30.6337L89.0784 30.96M46.6863 92.535C47.4078 93.9704 51.4967 102.702 53.451 106.889L61.5686 105.992L63.8235 111.823L75.0681 99.2909M75.0681 99.2909L75.098 98.8148H85.0196L82.3137 89.8436L91.5 84L88.1765 76.3868L96.2941 69.6584L91.3333 61.1358L99 53.9588L92.2353 46.3333L98 42.2963L90.8823 36.9136L95.3921 31.5309L89.0784 30.96M86.3725 56.6502L89.0784 42.2963M89.0784 42.2963V30.96" stroke="#0BC2FE"/>
<path d="M41.6667 37.0567L49.6667 19.2429L47 20.5789L40.7778 32.1579L34.5556 49.081L31.4444 66.8947L31 82.4818L34.5556 99.8502L43.4444 113.656L51.8889 119H62.1111L73.6667 113.211L86.5556 96.2874L95.4444 75.3563L99 53.0891L97.6667 35.7206L91 19.2429L83.4444 11.6721L73.2222 9L63.4444 11.6721L50.5556 22.8057L41.6667 37.0567Z" stroke="#00FFFF" stroke-width="2"/>
</g>
<defs>
<clipPath id="clip0_20_81">
<rect width="128" height="128" fill="white"/>
</clipPath>
</defs>
</svg>
