<svg width="128" height="128" viewBox="0 0 128 128" fill="none" xmlns="http://www.w3.org/2000/svg">
<g clip-path="url(#clip0_20_40)">
<rect width="128" height="128" rx="15" fill="#262324"/>
<path d="M41.5 56.5L49.5 70.5L16 81H37.5L61 96L12 85.5V96L61 81M41.5 56.5L58 47.5L38 47M41.5 56.5L58 59M38 47L34 33L29 50L20.5 38L17 55M38 47L48 35M36 62.5L40.5 78.5" stroke="#0BC2FE"/>
<path d="M61 96H12V85.5L42 57L43 51.5L38.5 47H33.5L29.5 50L29 55.5H12.5L14 45L20.5 37L30 32.5H40L50.5 36L57 43L59.5 51L58 60.5L49 71L37 81H61V96Z" stroke="#00FFFF" stroke-width="2"/>
<path d="M84 90.5L81 111M81 111L70 99L78.5 83M81 111L70 110L73.5 119L70 127M81 111L78.5 83M78.5 83L70 72V59M70 59L74.75 63.5M70 59L75.5 31.5L70 31L73.5 13.5L69.5 1.5M74.75 63.5L79.5 68L88.5 41L74.75 63.5ZM74.75 63.5L80.5 35M97 47.5C94.6 49.1 87.3333 58.8333 84 63.5M109.5 83L112.5 73.5L102.5 78L105 68.5L96.5 72.5L99.5 60L92.5 64L98 51" stroke="#0BC2FE"/>
<path d="M74 0H70L70.5 128H73.5V118.5L89.5 102.5V97.5L73.5 75.5L89.5 56.5L93 71L108.5 83L112.5 83.5L115.5 80.5V75.5L100.5 64.5L97 47.5L73.5 29.5L74 0Z" stroke="#00FFFF" stroke-width="2"/>
<path d="M85 20V27L88 33L94 37H101L107.5 33.5L111 27V21L107.5 14.5L101 11H94.5L89.5 14L85 20Z" stroke="#00FFFF" stroke-width="2"/>
<path d="M87.5 33.5L107.5 14.5M107.5 33.5L89.5 14.5M94.5 11L101 37M101 11L94 37M85 27L111 20" stroke="#0BC2FE"/>
<path d="M85 20L111 27" stroke="#0BC2FE"/>
</g>
<defs>
<clipPath id="clip0_20_40">
<rect width="128" height="128" fill="white"/>
</clipPath>
</defs>
</svg>
