<svg width="128" height="128" viewBox="0 0 128 128" fill="none" xmlns="http://www.w3.org/2000/svg">
<g clip-path="url(#clip0_18_2)">
<rect width="128" height="128" rx="15" fill="#262324"/>
<path d="M32.8227 44.1154L6 59.8099L16.6173 69.3387" stroke="#0BC2FE"/>
<path d="M34.4991 43.5548L7.67642 50.8416L6 58.6888L6.55881 71.5808L9.35283 79.9886L34.4991 43.5548Z" stroke="#00FFFF" stroke-width="2"/>
<path d="M28.911 72.1413L19.9701 99.6067L33.9403 100.167" stroke="#0BC2FE"/>
<path d="M28.911 71.5807L15.4997 92.8804L21.0877 100.728L28.3522 108.014L36.7343 113.059L28.911 71.5807Z" stroke="#00FFFF" stroke-width="2"/>
<path d="M44.405 94.4142L57.2612 120.269L67.602 110.831" stroke="#0BC2FE"/>
<path d="M44.0128 94.0151L49.3699 118.628L58.8417 120.281L69.1149 120.354L78.6148 118.044L44.0128 94.0151Z" stroke="#00FFFF" stroke-width="2"/>
<path d="M71.939 97.8413L99.1903 107.2L99.9481 93.1966" stroke="#0BC2FE"/>
<path d="M71.3803 97.8334L92.4216 111.588L100.324 106.095L107.691 98.9131L112.839 90.5781L71.3803 97.8334Z" stroke="#00FFFF" stroke-width="2"/>
<path d="M93.0184 82.3576L118.975 69.8319L109.714 59.3258" stroke="#0BC2FE"/>
<path d="M92.6149 82.7454L117.226 77.7232L119.009 68.2469L119.228 57.9442L117.061 48.3832L92.6149 82.7454Z" stroke="#00FFFF" stroke-width="2"/>
<path d="M98.2446 55.7241L107.962 28.5253L94.0138 27.5657" stroke="#0BC2FE"/>
<path d="M98.2287 56.2843L112.24 35.3766L106.877 27.3728L99.8226 19.8813L91.5872 14.599L98.2287 56.2843Z" stroke="#00FFFF" stroke-width="2"/>
<path d="M83.8834 32.9393L70.543 7.33217L60.3816 16.965" stroke="#0BC2FE"/>
<path d="M84.2831 33.3309L78.4638 8.82434L68.9626 7.35083L58.6898 7.47191L49.2351 9.96159L84.2831 33.3309Z" stroke="#00FFFF" stroke-width="2"/>
<path d="M55.5848 27.9425L28.1345 19.1883L27.6845 33.2053" stroke="#0BC2FE"/>
<path d="M56.1436 27.9382L34.8052 14.652L27.0256 20.3181L19.818 27.6614L14.8541 36.1082L56.1436 27.9382Z" stroke="#00FFFF" stroke-width="2"/>
</g>
<defs>
<clipPath id="clip0_18_2">
<rect width="128" height="128" fill="white"/>
</clipPath>
</defs>
</svg>
