<svg width="128" height="128" viewBox="0 0 128 128" fill="none" xmlns="http://www.w3.org/2000/svg">
<g clip-path="url(#clip0_15_25)">
<rect width="128" height="128" rx="15" fill="#262324"/>
<path d="M53 85.5L43.5 117.5V78L28.5 108.5L39.5 67.5L18 95.5L29 68L10 80.5L14.5 67.5" stroke="#0BC2FE"/>
<path d="M40 68L7.5 67.5L9 77.5L14 88.5L21.5 101L28.5 109L40 116L50 120L53 85.5L45.5 80.5L41 74L40 68Z" stroke="#00FFFF" stroke-width="2"/>
<path d="M85 74.5L117 84H77.5L108 99L67 88L95 109.5L67.5 98L80 117.5L67 113" stroke="#0BC2FE"/>
<path d="M67 87.5V120L77 118.5L88 113.5L100.5 106L108.5 99L115.5 87.5L119.5 77.5L85.5 74L80 82L73.5 86.5L67 87.5Z" stroke="#00FFFF" stroke-width="2"/>
<path d="M75 42.5L84 10.5V50L99 19.5L88 60.5L109.5 32.5L98 59.5L117 48L113 60.5" stroke="#0BC2FE"/>
<path d="M86.5 60.5L120 60.5L118.5 50.5L113.5 39.5L106 27L99 19L87.5 12L77.5 8L74 41.5L82 47.5L86 53.5L86.5 60.5Z" stroke="#00FFFF" stroke-width="2"/>
<path d="M41 53L10.5 43.5L50 43.5L19.5 28.5L59 39L32.5 18L59.5 28.5L48.5 10.5L60.5 14.5" stroke="#0BC2FE"/>
<path d="M59.5 41L60.5 7.5L50.5 9L39.5 14L27 21.5L19 28.5L12 40L8 50L41 53.5L47.5 45.5L54 41H59.5Z" stroke="#00FFFF" stroke-width="2"/>
</g>
<defs>
<clipPath id="clip0_15_25">
<rect width="128" height="128" fill="white"/>
</clipPath>
</defs>
</svg>
